<?xml version="1.0" standalone="no"?>
<!DOCTYPE svg PUBLIC "-//W3C//DTD SVG 20010904//EN"
 "http://www.w3.org/TR/2001/REC-SVG-20010904/DTD/svg10.dtd">
<svg version="1.0" xmlns="http://www.w3.org/2000/svg"
 width="500.000000pt" height="500.000000pt" viewBox="0 0 500.000000 500.000000"
 preserveAspectRatio="xMidYMid meet">

<g transform="translate(0.000000,500.000000) scale(0.100000,-0.100000)"
fill="#000000" stroke="none">
<path d="M2775 4064 c-34 -30 -168 -140 -200 -165 -6 -4 -58 -18 -115 -30 -58
-11 -127 -30 -154 -41 -185 -73 -372 -292 -441 -518 -14 -47 -23 -69 -20 -50
20 124 20 114 -5 100 -19 -10 -22 -10 -17 2 7 20 -19 19 -38 -2 -9 -9 -27 -62
-41 -116 -25 -98 -25 -102 -21 -434 4 -379 7 -399 91 -575 70 -147 168 -262
296 -348 57 -38 66 -48 72 -83 11 -62 9 -125 -6 -182 -27 -99 12 -142 130
-142 l67 0 141 140 c132 130 145 140 191 149 227 43 407 188 519 416 81 165
102 319 93 685 -6 247 -15 312 -60 431 -59 156 -130 256 -253 361 l-84 70 0
158 c0 144 -2 160 -21 184 -30 38 -73 35 -124 -10z m41 -279 c-1 -183 -3 -179
66 -190 92 -16 216 -152 273 -300 58 -151 60 -170 59 -510 -2 -402 -18 -485
-127 -654 -64 -98 -110 -140 -207 -188 -90 -44 -136 -59 -211 -68 -42 -5 -54
-14 -122 -83 -41 -42 -89 -90 -105 -105 l-30 -29 0 141 c-1 117 2 141 14 141
7 0 14 -6 14 -12 0 -9 4 -8 10 2 5 8 10 12 10 8 0 -3 20 0 45 8 25 7 53 10 62
7 11 -5 14 -3 8 6 -6 10 -2 11 15 6 17 -5 21 -4 15 6 -6 9 -2 11 13 7 13 -4
22 -1 22 5 0 9 2 9 8 1 4 -6 15 -10 25 -8 25 3 31 10 18 19 -6 3 -11 1 -11 -5
0 -6 -5 -8 -11 -4 -8 5 -8 9 1 14 17 11 51 0 44 -14 -3 -6 3 0 13 14 10 13 26
33 36 42 9 10 13 18 8 18 -6 0 -17 -10 -25 -22 -9 -12 -23 -23 -32 -24 -8 -1
2 13 23 31 21 19 43 32 50 30 6 -2 17 3 23 11 7 8 9 14 6 14 -4 0 -2 9 4 20 6
11 16 19 22 17 7 -1 12 5 13 13 0 8 8 29 17 47 10 17 27 66 39 110 17 63 21
95 16 163 -7 107 -34 179 -95 255 -50 63 -86 90 -242 183 -143 84 -182 125
-210 218 -25 86 -24 152 4 246 15 49 27 66 81 114 36 31 90 66 120 79 37 14
51 24 41 28 -9 4 -18 17 -22 31 -3 14 -16 28 -27 32 -22 7 -22 7 -2 15 11 4
14 8 6 8 -8 1 -46 -14 -85 -33 -143 -69 -246 -244 -248 -422 -1 -92 16 -154
68 -248 41 -73 91 -121 173 -164 112 -59 227 -139 263 -183 47 -59 58 -96 58
-200 0 -147 -49 -240 -165 -314 -52 -33 -189 -85 -228 -85 -12 -1 -35 -7 -52
-14 -24 -10 -40 -10 -85 0 -50 12 -62 20 -131 94 -169 178 -211 328 -213 770
-1 269 0 277 26 382 39 149 93 242 200 344 88 83 151 113 334 160 93 23 122
36 194 85 47 31 94 66 104 78 11 12 20 21 21 21 1 0 2 -74 1 -165z"/>
<path d="M2591 3264 c-26 -34 -27 -77 -1 -119 23 -36 51 -48 85 -35 60 23 73
103 26 151 -38 38 -82 39 -110 3z"/>
<path d="M2843 3236 c-24 -21 -28 -31 -26 -71 3 -75 50 -115 107 -91 65 27 73
130 13 167 -42 25 -60 24 -94 -5z"/>
<path d="M2191 2556 c-28 -29 -37 -87 -21 -126 31 -76 133 -66 160 15 30 92
-76 178 -139 111z"/>
<path d="M2446 2509 c-42 -50 -31 -114 25 -141 36 -18 53 -15 87 15 34 31 32
108 -4 136 -39 31 -77 27 -108 -10z"/>
<path d="M2745 2000 c-3 -5 -1 -10 4 -10 6 0 11 5 11 10 0 6 -2 10 -4 10 -3 0
-8 -4 -11 -10z"/>
</g>
</svg>
